<?xml version="1.0" encoding="UTF-8"?>
<svg xmlns="http://www.w3.org/2000/svg" version="1.1" viewBox="0 0 187.5 125">
  <defs>
    <style>
      .cls-1 {
        fill: #016fd0;
      }
    </style>
  </defs>
  <!-- Generator: Adobe Illustrator 28.7.3, SVG Export Plug-In . SVG Version: 1.2.0 Build 164)  -->
  <g>
    <g id="Layer_1">
      <g>
        <path class="cls-1" d="M46.52,47.97c0,1.69,0,3.32,0,4.95,0,2.07,0,4.14,0,6.2,0,.16,0,.32,0,.48,0,.29-.15.45-.44.45-1.33,0-2.67,0-4,0-.27,0-.42-.13-.43-.41,0-.15,0-.29,0-.44,0-5.4,0-10.81,0-16.21,0-.12,0-.24,0-.36-.01-.35.15-.51.51-.51,2.2,0,4.4,0,6.6,0,.38,0,.54.2.65.52,1.05,2.92,2.11,5.85,3.17,8.77.2.55.4,1.1.63,1.74.29-.78.56-1.46.81-2.16.99-2.74,1.97-5.47,2.95-8.21.23-.64.27-.66.96-.66,2.04,0,4.08,0,6.12,0,.61,0,.65.04.65.66,0,5.55,0,11.1,0,16.65,0,.55-.07.62-.63.62-1.19,0-2.38,0-3.56,0-.63,0-.69-.05-.69-.68,0-3.55,0-7.1,0-10.65,0-.18,0-.37,0-.55-.03,0-.06-.01-.09-.02-.17.45-.35.9-.52,1.35-1.09,2.97-2.18,5.93-3.26,8.9-.14.38-.3.75-.41,1.13-.11.36-.32.52-.7.52-1.12,0-2.24,0-3.36,0-.34,0-.54-.14-.65-.46-.7-1.94-1.42-3.88-2.13-5.82-.68-1.85-1.36-3.7-2.05-5.56-.03-.07-.07-.14-.12-.25Z"/>
        <path class="cls-1" d="M160.79,52.65c0-.17,0-.34,0-.51-.01-3.08-.03-6.16-.04-9.24,0-.73.04-.77.77-.77,1.15,0,2.29,0,3.44,0,.54,0,.63.09.63.63,0,5.56,0,11.13,0,16.69,0,.54-.07.61-.6.61-1.59,0-3.18,0-4.76,0-.36,0-.6-.13-.8-.42-1.44-2.2-2.89-4.39-4.34-6.58-.79-1.19-1.59-2.37-2.38-3.56-.04-.06-.1-.11-.22-.24-.01.25-.03.42-.03.59,0,3.14,0,6.27,0,9.41,0,.76-.04.8-.78.8-1.15,0-2.29,0-3.44,0-.6,0-.66-.06-.66-.67,0-5.54,0-11.07,0-16.61,0-.59.07-.65.64-.65,1.61,0,3.23,0,4.84,0,.39,0,.65.13.86.45,1.35,2.04,2.7,4.06,4.06,6.09.89,1.34,1.79,2.68,2.69,4.01.04,0,.08-.02.12-.03Z"/>
        <path class="cls-1" d="M110.59,76.43c.46.52.84.97,1.25,1.41,1.38,1.5,2.77,2.99,4.16,4.49.1.11.14.27.2.41-.14.05-.29.14-.43.14-1.65,0-3.31,0-4.96.01-.4,0-.63-.21-.87-.49-1.54-1.77-3.08-3.55-4.62-5.32-.35-.41-1.33-.64-1.79-.38-.13.07-.21.33-.21.5-.02,1.47,0,2.93-.01,4.4,0,.27,0,.53,0,.8,0,.31-.14.47-.46.47-1.31,0-2.61,0-3.92,0-.36,0-.51-.18-.5-.52,0-.15,0-.29,0-.44,0-5.34,0-10.67,0-16.01,0-.16,0-.32,0-.48,0-.34.17-.49.5-.48.11,0,.21,0,.32,0,3.01,0,6.03-.03,9.04.02.98.02,1.98.12,2.92.38,2.47.68,3.92,2.73,3.96,5.28.04,2.1-.8,3.73-2.5,4.9-.47.33-1.05.51-1.58.75-.13.06-.27.09-.49.16ZM106.06,72.55h0c.64,0,1.28,0,1.92,0,.03,0,.05,0,.08,0,.39-.06.8-.09,1.17-.21.88-.27,1.28-1.29.89-2.12-.39-.83-1.13-1.01-1.93-1.03-1.45-.03-2.9,0-4.36-.01-.36,0-.54.14-.54.52.01.77.01,1.55,0,2.32,0,.37.15.54.52.53.75-.01,1.49,0,2.24,0Z"/>
        <path class="cls-1" d="M103.93,60.04c-.1.01-.2.03-.3.03-1.67,0-3.34-.01-5,0-.41,0-.7-.13-.96-.45-1.55-1.8-3.11-3.59-4.67-5.37-.28-.32-1.33-.52-1.67-.28-.13.09-.19.34-.19.52-.01,1.52,0,3.04,0,4.56q0,1.01-1,1.01c-1.09,0-2.19,0-3.28,0-.53,0-.6-.08-.6-.61,0-5.58,0-11.15,0-16.73,0-.52.08-.6.61-.6,3.4,0,6.81-.06,10.2.03,1.22.03,2.44.41,3.49,1.15.97.68,1.72,1.53,2.07,2.67,1,3.21-.39,6.51-3.86,7.56-.11.03-.21.08-.4.15,1.92,2.11,3.8,4.16,5.67,6.22-.03.05-.07.09-.1.14ZM93.91,49.76c.57,0,1.15.01,1.72,0,.4-.01.81-.03,1.19-.12.49-.12.91-.4,1.07-.93.36-1.18-.36-2.22-1.6-2.25-1.55-.03-3.1,0-4.64-.01-.38,0-.53.17-.52.53.01.79.01,1.57,0,2.36,0,.34.14.43.46.42.77-.02,1.55,0,2.32,0Z"/>
        <path class="cls-1" d="M68.15,51.07c0-2.74,0-5.47,0-8.21,0-.72.02-.74.74-.74,4.51,0,9.02,0,13.53,0,.13,0,.27,0,.4,0,.29,0,.45.16.45.45,0,1.15,0,2.3,0,3.44,0,.28-.16.41-.43.42-.16,0-.32,0-.48,0-2.87,0-5.74,0-8.61,0-.68,0-.72.04-.72.73,0,.43,0,.85,0,1.28,0,.39.17.55.56.55.97,0,1.95,0,2.92,0,2,0,4,0,6.01,0,.32,0,.46.08.46.43-.02,1.07,0,2.14-.02,3.2,0,.55-.07.62-.63.62-2.84,0-5.68,0-8.53,0-.75,0-.77.03-.77.76,0,.35,0,.69,0,1.04,0,.81.03.84.82.84,1.79,0,3.58,0,5.36,0,1.19,0,2.38,0,3.56-.01.37,0,.5.14.5.49,0,1.01,0,2.03,0,3.04,0,.58-.07.64-.65.64-3.48,0-6.97,0-10.45,0-1.12,0-2.24,0-3.36,0-.61,0-.67-.06-.67-.66,0-2.78,0-5.55,0-8.33Z"/>
        <path class="cls-1" d="M117.47,73.9c0-2.72,0-5.44,0-8.17,0-.73.05-.78.76-.78,4.55,0,9.1,0,13.65,0,.68,0,.72.04.72.73,0,.95,0,1.9,0,2.84,0,.61-.06.67-.66.67-2.91,0-5.82,0-8.73,0q-.86,0-.86.88c0,.36,0,.72,0,1.08,0,.65.04.68.68.68,1.92,0,3.84,0,5.77,0,.99,0,1.98,0,2.96,0,.51,0,.59.08.6.57,0,1.03,0,2.06,0,3.08,0,.48-.05.51-.54.51-2.91,0-5.82,0-8.73,0-.68,0-.74.06-.74.73,0,.45,0,.91,0,1.36.01.49.07.55.56.55,2.4,0,4.8,0,7.21,0,.64,0,1.28.01,1.92,0,.39,0,.56.15.55.55-.01,1.05-.01,2.11,0,3.16,0,.4-.17.54-.56.54-4.66,0-9.32,0-13.97,0-.52,0-.61-.09-.61-.66,0-2.78,0-5.55,0-8.33Z"/>
        <path class="cls-1" d="M41.64,73.9c0-2.72,0-5.44,0-8.17,0-.73.05-.78.76-.78,4.54,0,9.07,0,13.61,0,.71,0,.76.06.76.74,0,.95,0,1.89,0,2.84,0,.6-.06.66-.67.66-2.94,0-5.87,0-8.81,0-.74,0-.77.03-.77.76,0,.32,0,.64,0,.96q0,.92.9.92c2.71,0,5.42,0,8.13,0q.99,0,.99.99c0,.75,0,1.49,0,2.24q0,.94-.92.94c-2.78,0-5.55,0-8.33,0-.74,0-.76.03-.77.77,0,.37,0,.75,0,1.12,0,.72.03.75.74.75,2.83,0,5.66,0,8.49,0q1.02,0,1.02,1.03c0,.88,0,1.76,0,2.64,0,.48-.08.57-.56.57-4.66,0-9.31,0-13.97,0-.52,0-.6-.09-.6-.66,0-2.78,0-5.55,0-8.33Z"/>
        <path class="cls-1" d="M29.91,56.46c-1.11,0-2.21,0-3.32,0-.73,0-.74,0-1.02.69-.32.78-.65,1.55-.95,2.34-.16.42-.42.59-.88.58-1.39-.02-2.78,0-4.16,0-.53,0-.59-.1-.38-.59.72-1.63,1.45-3.27,2.17-4.9,1.77-4,3.54-8,5.3-12.01.14-.31.34-.44.68-.44,1.73,0,3.47.01,5.2,0,.43,0,.61.23.76.57,1.05,2.41,2.11,4.81,3.17,7.22,1.42,3.21,2.84,6.42,4.25,9.63.22.49.19.53-.36.53-1.43,0-2.86,0-4.28,0-.65,0-.69-.03-.95-.64-.33-.8-.68-1.59-1-2.4-.16-.4-.39-.58-.84-.57-1.13.02-2.27,0-3.4,0ZM29.92,46.91c-.07.08-.1.1-.11.13-.68,1.62-1.37,3.24-2.04,4.86-.15.35-.05.46.38.47,1.19,0,2.37,0,3.56,0,.43,0,.48-.07.31-.48-.68-1.65-1.38-3.29-2.09-4.99Z"/>
        <path class="cls-1" d="M144.07,60.06c-.75,0-1.49,0-2.24,0-.34,0-.54-.12-.67-.45-.37-.92-.77-1.82-1.14-2.73-.12-.29-.3-.42-.6-.42-2.4,0-4.8,0-7.2,0-.32,0-.51.14-.63.45-.35.89-.74,1.77-1.08,2.67-.14.35-.35.49-.73.49-1.43-.01-2.86,0-4.28,0-.52,0-.58-.09-.37-.56.88-1.99,1.76-3.97,2.64-5.96,1.13-2.58,2.26-5.15,3.39-7.73.47-1.06.95-2.12,1.41-3.18.15-.35.37-.51.77-.51,1.71.01,3.42.01,5.12,0,.37,0,.58.14.73.48,1.44,3.29,2.89,6.57,4.34,9.85,1.04,2.35,2.08,4.71,3.12,7.06.21.49.17.54-.37.54-.73,0-1.47,0-2.2,0ZM133.51,52.33h4.59c-.75-1.81-1.48-3.55-2.21-5.3-.05,0-.1,0-.15,0-.73,1.74-1.47,3.49-2.23,5.3Z"/>
        <path class="cls-1" d="M157.8,82.88c-1.59,0-3.18,0-4.76,0-.56,0-.65-.09-.65-.65,0-.99,0-1.98,0-2.96,0-.54.09-.62.64-.62,2.92,0,5.85,0,8.77,0,.29,0,.59-.04.86-.13.62-.21.92-.71.85-1.37-.06-.54-.49-.98-1.09-1.06-.33-.05-.66-.07-1-.07-1.31,0-2.62,0-3.92,0-1.36,0-2.61-.34-3.72-1.15-.72-.53-1.26-1.21-1.53-2.05-.64-2-.55-3.94.79-5.66,1.06-1.35,2.54-2.04,4.21-2.09,3.44-.1,6.88-.08,10.33-.1.44,0,.52.11.35.5-.5,1.13-1.02,2.26-1.54,3.39-.15.33-.44.35-.74.35-2.31,0-4.62,0-6.93,0-.33,0-.68,0-.99.11-.26.08-.53.26-.71.48-.5.62-.18,1.63.59,1.85.38.11.78.18,1.18.19,1.52.02,3.04-.04,4.56.02,1.68.07,3.16.64,4.19,2.06.71.97.88,2.1.86,3.27-.03,2.99-1.93,5.02-4.82,5.55-.51.09-1.03.14-1.55.15-1.41.02-2.83,0-4.24,0Z"/>
        <path class="cls-1" d="M140.45,82.88c-1.56,0-3.12,0-4.68,0-.67,0-.75-.08-.75-.73,0-.95,0-1.9,0-2.84,0-.59.08-.67.67-.67,2.91,0,5.82,0,8.73,0,.32,0,.67-.06.97-.18.55-.22.8-.7.73-1.29-.06-.55-.45-.97-1.04-1.07-.35-.06-.72-.09-1.07-.1-1.4-.01-2.8.02-4.2-.01-1.15-.03-2.24-.32-3.2-1-1.66-1.17-2.22-2.83-2.12-4.78.06-1.13.44-2.17,1.15-3.06,1.08-1.36,2.56-2.05,4.25-2.1,3.43-.1,6.86-.08,10.29-.1.5,0,.56.12.35.58-.48,1.03-.97,2.05-1.42,3.09-.18.42-.44.58-.88.58-2.26-.01-4.51,0-6.77,0-.33,0-.67.01-1,.07-.63.12-1.04.59-1.06,1.18-.02.57.32,1.05.95,1.22.33.09.68.15,1.02.15,1.55.02,3.1-.05,4.64.02,2.03.1,3.76.88,4.58,2.87,1.17,2.82.23,6.73-3.6,7.82-.88.25-1.77.37-2.69.35-1.28-.02-2.56,0-3.84,0Z"/>
        <path class="cls-1" d="M60.67,64.95c.83,0,1.66.01,2.48,0,.43-.01.73.15,1,.47,1.26,1.48,2.53,2.96,3.81,4.43.35.41.36.4.71,0,1.31-1.52,2.61-3.04,3.94-4.53.16-.18.47-.33.71-.34,1.72-.03,3.44-.02,5.16,0,.14,0,.29.09.43.14-.06.12-.11.27-.2.37-2.32,2.61-4.64,5.22-6.97,7.83-.35.39-.34.44,0,.83,1.89,2.14,3.78,4.28,5.67,6.42.53.6,1.07,1.19,1.59,1.8.09.1.13.25.19.37-.14.05-.28.16-.42.16-1.76.01-3.52.02-5.28,0-.22,0-.5-.13-.65-.3-1.39-1.56-2.76-3.15-4.14-4.73-.1-.11-.17-.25-.29-.32-.09-.05-.29-.05-.35.02-.96,1.09-1.91,2.19-2.87,3.29-.52.6-1.04,1.22-1.58,1.8-.13.14-.37.24-.56.24-1.73.02-3.47.01-5.2,0-.13,0-.27-.08-.4-.12.06-.14.09-.31.18-.42,1.12-1.27,2.25-2.54,3.37-3.8,1.31-1.48,2.62-2.95,3.94-4.42.2-.22.19-.39-.01-.62-2.21-2.48-4.42-4.96-6.62-7.44-.19-.21-.4-.4-.58-.61-.08-.09-.1-.23-.14-.35.12-.05.24-.13.36-.13.91-.01,1.81,0,2.72,0h0Z"/>
        <path class="cls-1" d="M79.7,73.89c0-2.79,0-5.58,0-8.36,0-.46.09-.57.56-.57,3.27,0,6.54-.02,9.81,0,1.19,0,2.37.16,3.45.74,1.75.95,2.75,2.4,3,4.4.19,1.45,0,2.8-.74,4.04-1.05,1.79-2.7,2.73-4.73,2.87-1.89.13-3.79.08-5.68.1-.69,0-.73.04-.73.72,0,1.44,0,2.88,0,4.32,0,.64-.09.72-.72.72-1.21,0-2.43,0-3.64,0-.5,0-.59-.11-.59-.59,0-2.8,0-5.6,0-8.4h0ZM87.45,72.87c.69,0,1.39,0,2.08,0,.28,0,.56-.03.83-.1,1.26-.36,1.72-1.93.88-2.93-.43-.51-1.04-.62-1.67-.63-1.45-.02-2.9,0-4.36,0-.48,0-.56.08-.56.56,0,.88.01,1.76-.01,2.64-.01.38.14.49.49.48.77-.02,1.55,0,2.32,0Z"/>
        <path class="cls-1" d="M123.45,42.13c1.15,0,2.13,0,3.1,0,.52,0,.61.09.61.61,0,1.07,0,2.14,0,3.2,0,.52-.08.59-.62.59-1.53,0-3.07-.03-4.6.01-1.14.03-2.25.23-3.17,1.01-.67.58-1.06,1.31-1.21,2.16-.19,1.14-.21,2.28.13,3.41.41,1.34,1.32,2.17,2.66,2.52,1.28.34,2.59.26,3.9.25.5,0,.56.07.35.52-.48,1.03-.98,2.05-1.44,3.08-.19.43-.46.58-.93.58-1.42,0-2.82.01-4.2-.42-3.3-1.03-5.15-3.8-5.45-6.97-.11-1.2-.1-2.4.07-3.59.51-3.57,3.18-6.17,6.75-6.76,1.41-.23,2.81-.17,4.04-.22Z"/>
        <path class="cls-1" d="M105.25,51.09c0-2.73,0-5.47,0-8.2,0-.7.05-.76.75-.76,1.17,0,2.35,0,3.52,0,.56,0,.67.1.67.64,0,5.56,0,11.12,0,16.69,0,.51-.1.6-.62.6-1.24,0-2.48,0-3.72,0-.53,0-.59-.07-.59-.61,0-2.79,0-5.58,0-8.36h0Z"/>
      </g>
    </g>
  </g>
</svg>